<?xml version="1.0" encoding="UTF-8"?>
<svg id="_레이어_2" data-name="레이어 2" xmlns="http://www.w3.org/2000/svg" viewBox="0 0 344.36 514.2">
  <defs>
    <style>
      .cls-1 {
        fill: none;
        stroke: #e5e5e5;
        stroke-linecap: round;
        stroke-linejoin: round;
      }
    </style>
  </defs>
  <g id="_레이어_1-2" data-name="레이어 1">
    <g>
      <path class="cls-1" d="m54.95,107.08l-1.51,4.24-.38,3.02,7,3.4,3.78-1.51,1.88-5.1-1.32-8.51s.19-2.84,0-4.73c-.19-1.89-4.35-6.87-4.35-6.87h-3.78l-3.97,2.9-.76,4.35s.76,2.84,1.51,4.73c.76,1.89,1.89,4.08,1.89,4.08Z"/>
      <g>
        <g>
          <polygon class="cls-1" points="21.93 406.16 24.2 403.32 24.92 400.77 24.92 397.79 27.11 396.59 26.9 394.6 26.47 394.6 24.92 394.6 18.04 399.28 16.9 402.4 18.53 405.94 21.93 406.16"/>
          <path class="cls-1" d="m31.51,405.87l2.06-.57.28-2.69s-.14-1.7-.5-1.91c-.35-.21-1.84-.32-1.84-.32l-2.98.39,1.21,3.76,1.77,1.35Z"/>
          <path class="cls-1" d="m39.35,430.36l1.13,1.23,2.27.95.95-.28.66-2.36-1.61-2.46s.95-.09,1.13-1.28c.19-1.18-.09-2.79-.09-2.79l-1.04-1.42-2.55,2.84v.57l-2.17.47-2.55,1.99.38,1.64,3.5.91Z"/>
          <path class="cls-1" d="m20.54,425.25l1.47-3.78s-.43-.76-.9-1.04-3.31-.47-3.31-.47l-.9,1.04-4.77.95-1.23,2.46,1.8,2.84,4.92.47,2.93-2.46Z"/>
          <path class="cls-1" d="m23.66,432.53s2.17-2.36,2.46-2.79c.28-.43.99-2.03.99-2.03l-.52-1.61h-1.67l-2.92,1.61-.9,1.74-1.7,1.1-.57,1.99,3.17.85s1.47-.47,1.65-.85Z"/>
          <path class="cls-1" d="m6.83,433.38l-.09,2.74s1.04,1.32,1.51,1.51c.47.19,3.88-1.23,3.88-1.23l.19-1.32-1.8-2.55-3.69.85Z"/>
          <polygon class="cls-1" points="4.47 439.62 4.28 437.07 1.63 437.65 .5 440.19 2.77 442.69 3.9 442.69 4.47 439.62"/>
          <polygon class="cls-1" points="7.68 441.61 6.08 442.69 4.47 444.35 3.34 446.05 4.94 448.03 9.53 448.41 10.9 445.95 9.53 441.61 7.68 441.61"/>
          <path class="cls-1" d="m26.61,455.5l1.35-1.28v-2.62l-.85-.92h-1.7s-2.1.43-2.43.78c-.33.35-.54,2.48-.54,2.48l2.06,1.28,2.13.28Z"/>
          <polygon class="cls-1" points="17.54 456.78 18.32 458.34 19.74 458.41 20.3 456.92 19.67 455.01 17.54 455.01 17.54 456.78"/>
          <path class="cls-1" d="m20.3,461.24h-2.76s-2.2,2.62-2.27,2.98c-.07.35.21.99.43,1.28.21.28,2.17.99,3.14.5.97-.5,1.04,0,1.47-1.77s0-2.98,0-2.98Z"/>
          <path class="cls-1" d="m22.97,441.61v-3.33l-2.1-.62h-.38c-.19.34-1.11,1.9-1.11,1.9l2.62,3.14.97-1.09Z"/>
          <path class="cls-1" d="m41.43,464.58c-.57-.43-2.55-1.42-2.55-1.42l-1.84-1.91-1.56-1.35h-1.63v1.35l1.63,2.46v3.57l-2.84.71-3.4.81-2.13,3.02-2.19,2.72-3.74,2.13-.87,2.24v1.42l2.67.71,1.44,2.96,2.69,1.15s2.2-.75,4.08-1.15c1.88-.41,4.71-1.12,5.28-1.68.57-.57,1.7-2.55,2.41-2.55h2.98l2.51-1.28,1.18-2.69v-4.68l-.57-3.69s-2.98-2.41-3.54-2.84Z"/>
          <path class="cls-1" d="m77.26,482.73l-1.23-.66-1.13.33-3.21,2.03-.19,3.97.95,1.89,3.59,1.04s.57,1.04.76,1.32,2.84.56,3.21.99c.38.43,1.8,0,1.8,0l.28-1.55-2.84-5.86-1.99-3.5Z"/>
          <polygon class="cls-1" points="91.34 482.06 90.78 480.17 89.39 478.38 85.86 477.81 83.21 480.17 83.12 483.48 84.73 483.98 90.02 483.98 91.34 482.06"/>
          <path class="cls-1" d="m94.08,491.14l-.57-3.19-3.21-1.25-1.8,1.25-3.02.83s-.09,1.51.19,1.89c.28.38,3.72,1.8,3.72,1.8l2.9.47,1.8-1.8Z"/>
          <path class="cls-1" d="m96.07,481.31c-.57,0-2.93,1.23-2.93,1.23l.95,2.6s2.17.61,2.55.71c.38.09.85.09.85.09l.47-2.36s-1.32-2.27-1.89-2.27Z"/>
          <path class="cls-1" d="m64.69,502.58l-.85,2.46s.76.66,1.42.76,2.55.19,2.55.19l.38-2.65-2.08-1.8-1.42,1.04Z"/>
          <path class="cls-1" d="m71.49,505.98l-1.23,2.16v3.89l.61,1.42s2.03.57,2.22,0c.19-.57.85-2.65.85-4.54s-.38-3.4-.38-3.4l-2.08.47Z"/>
          <polygon class="cls-1" points="65.72 508.14 62.32 508.14 58.45 509.1 58.26 511.65 60.81 512.69 65.06 512.31 67.71 510.63 67.62 509.1 65.72 508.14"/>
          <polygon class="cls-1" points="93.14 503.76 90.59 505.51 91.34 509.01 93.71 510.42 96.16 509.6 96.83 507.4 95.55 504.18 93.14 503.76"/>
          <polygon class="cls-1" points="124.14 472.52 115.83 474.12 114.88 476.66 119.42 479.8 124.14 478.95 126.04 476.66 126.98 474.53 126.7 472.52 124.14 472.52"/>
          <path class="cls-1" d="m108.93,476.66c-.09.21-.47,3.14-.47,3.14l1.8,1.1,1.13-1.1v-1.99l-1.51-1.15h-.95Z"/>
          <polygon class="cls-1" points="180.11 453.09 178.92 451.53 176.14 453.09 174.58 456.71 177.98 459.9 178.92 459.9 180.25 455.5 180.11 453.09"/>
          <path class="cls-1" d="m173.73,465.57s-.57,1.84-.57,2.55.57,2.84.57,2.84c0,0,2.41,1.7,2.84,1.56s2.35-.99,2.35-.99v-4.4l-1.5-2.84-3.69,1.28Z"/>
          <path class="cls-1" d="m150.9,473.32v-.8l.14-1.7-2.84-3.97h-2.27l.71,4.25,2.13,1.42v2.01l.85,4.25,2.55,1.02s1.56-.38,1.28-1.99c-.28-1.61-2.55-4.49-2.55-4.49Z"/>
          <path class="cls-1" d="m174.65,440.52c-.08-.97,0-3.19.01-3.29v-.15s1.61-2.82,1.61-2.82v-.77l-4.72-.34-3.3.36-2.07,1.65-4.49-2.35-1.86-3.23-1.15-5.37v-2.93c-.17-.18-.36-.46-.37-.83-.01-.48.27-.92.83-1.29l1.49-.99.35.24c.49.34,2.1,1.53,2.33,2.44.08.31.19.48.36.74.16.26.36.57.56,1.07l.23.58,2.44.15,2.29-1.41,3.84-2.79-.17-1.82.34-1.6,3.87.93v-6.11l-1.75-2.78-2.07-2.37-3.55-4.84-.14-3.48-3.74-2.9-2.2-2.47-1.3-4.22v-4.21l-2.94-2.8-.27-2c-.41-.14-.7-.29-.81-.34-.01,0-.03-.02-.03-.02h0s0,0,0,0l-3.22-2.54c-.76-.27-4.42-1.57-5.52-2.3-.76-.51-2.62-1.17-3.62-1.5l-1.15,1.3c-.53,1.72-1.5,4.53-2.31,5.03-.41.25-.61.92-.65,1.16l-.16.92-.79-.51c-.59-.39-2.38-1.41-3.49-1.49-1.45-.1-2.92,0-2.94,0h-4.18s-3.35-1.94-3.35-1.94l-.91.15-3.09.41-1.65-1.1-3.31,1.05-3.61,1.49-.25-.12c-4.31-2.14-4.31-2.28-4.31-2.72,0-.08,0-.26.76-3.47v-1.35l-1.89-1.7.05-2.42.68-1.52-.69-3.44-1.06-1.37-2.68-.16-1.17,1.02-.75,3.18-1.95,2.16-1.5.3-8.02-9.36-3.39-.48-1.86,2.32h-2.09l-2.51.86v5.19l-1.68,3.1-2.22,2.38-1.78,1.07-1.92,2.76-4.04,1.62-.26-.14c-.07-.04-1.73-.96-2.5-1.46-.33-.22-.91-.09-1.2,0l-1.4,1.53h-3.03l-1.44-1.83-.19-3.19-.56-1.41h-2.61v-3.46l-.52-2.97h-.72l-.9-.77-1.7,3.89,1.44,2.52v2.49h-2.61l-1.25,1.41-2.42,6.66-.9,4.55.75,4.52-.34,3.39,3.58,1.38,2.04,4.58.79,3.95-1.67,4.69-1.84,2.31-2.11-1.18-3.41-5.32.19-2.9-.73-1.75h-1.67l-4.1-.17-.71,2.12,1.66,2.77-.14,1.41,2.5.02,2.22.61,3.69,3.28.03.23c0,.07.2,1.71-.44,3-.6,1.21-2.31,2.92-2.39,3-1.18,1.15-2.54,2.57-2.7,2.89-.14.38-.14.47-.14,1.21,0,.4.48.7.89.7.27,0,1.16-.56,1.86-1.17.01,0,.93-.81,1.46-1.4.6-.67,3.22-2.42,3.52-2.62l.24-.16,2.14.61-.58,2.93-1.76,2.58.53,3.92.39,6.23-2.62,4.19.26,1.43c1.04.19,2.06.21,2.31.03.77-.57,2.49-1.72,2.49-1.72l.21-.14,2.78.51.19,1.55c.66.07,1.29.07,1.46-.01.35-.15.93-.58,1.25-.82l1.07-2.86,1.95-6.82,3.97-2.12v8.26l3.06,1.99c.93-.97,1.29-.95,1.59-.84.22.08.46.31.46.7,0,.6-.82,3.11-1.17,4.17l-.11.33-4.6,1.09-2.13-1.61-.79.58-1.22,3.45h-2.9l-7.18-.92-.61.51.5,1.58,2.81.05c5.31,2.25,5.96,2.84,6.04,3.24.55.86,5.14,6.07,7.98,9.25l.54.61-2.76,1.37h-10.21l-2.33-6.36-1.74-.75-1.15.66c-.03.49-.03,1.3.18,1.82.27.68,1.67,2.66,2.29,3.52,1.11.55,2.66,1.78,2.05,3.19-.67,1.56-2.02,2.03-2.08,2.05l-.24.08-3.82-1.81-3.72-2.67-.41-3.1-1.14-3.41-.38-5.14c-.2-1.18-.85-2.94-1.54-3.02-.88-.1-3.11.74-4.55,1.41l.7,6.51c.29.51,1.34,2.47,1.34,3.94,0,.52-.04,1.12-.09,1.72-.07.92-.16,2.18.02,2.54.21.38,2.01,1.75,3.57,2.79l5.15,2.76,3.09.52,2.87-1.48,5.83-.63.13.52s.21.85.21,2.23c0,1.53-1.86,3.44-2.07,3.65l-2.46,2.81c0,.35.04,1.03.17,1.51.12.36,1.36,1.59,2.45,2.51l.22.19-.04,3.71-1.76,4.97,2.39,2.53c.53.47,1.87,1.76,1.87,2.69,0,.68-.14,2.68-.45,3.89.27-.07.61-.18.92-.31l4.22-1.29,2.47-3,2.23-5.58,1.98-5.15,3.7-1.59h1.46l1.92-1.8.4-3.57.64-1.49,1.02-.71v-5.28l1.48-2.76,2.31-1.28,1.37,1.65.8,4.02-.72,9.21,3.31.71,3.63,2.44c.75-.38,2.18-1.07,2.71-1.14.26-.04,1.32-.55,2.24-1.04l1.72-4.31,2.65-3.21,1.18-1.02v-5.24l4.69-5.47,8-6.57,6.09-2.38,4.84-6.01h2.7l2.21,1.25,5.14-.98,1.04,7.26v1.76s-3.91,2.79-3.91,2.79l-3.11-.96-.73-3.97-1.35-.02s-.53-.04-1.2.85c-1.18,1.59-1.42,2.22-1.42,2.47.04.3.79,1.64,1.45,2.7l.1.15v7.54l-4.64.48-1.21-2.9.77-2.47h-.02c-.72,0-1.35.07-1.51.18-.31.49-2.64,3.44-3.12,4.05l-1.34,5.2,1.85.71c.9.06,3.03.18,3.46.18.26,0,.86-.28,1.19-.48l.17-.1,3.24.22,6.71,5.92,1.07,2.97,1.89-1.61,3.21-1.73,3.64-2.78v-1.04l-2.91-1.71-5.62-2.81.03-.41c.06-.9.25-3.07.67-3.71.42-.62,1.77-1.65,2.04-1.85l.19-.14,5.12.41,3.35,2.23,1.45-.14,1.08-1.08.67-1.66c-.01-1.5-.24-3.27-.58-3.6-.49-.49-.82-.9-1.28-1.46-.27-.33-.59-.73-1.02-1.22-1.07-1.25-4.03-3.42-4.06-3.44l-.16-.12-.06-.19c-.57-1.76-.95-3.1-.95-3.1l-.02-.17v-1.33l-2.45-2.81,2.09-2.72.16-1.81-.83-3.97.43-.21s.9-.44,2.17-.44c.65,0,1.57.16,2.46.31.73.13,1.49.26,1.89.26.23,0,.41,0,.57.02.47.03.62.03,1.19-.31.72-.43,3.26-2.39,4.51-3.36l.57-.44,1.89,3.32-.36.34c-.62.57-1.24,1.48-1.13,1.79.26.71,1.45,2.76,1.95,3.59l3.11,2.72.46,2.32-.11.2c-1.95,3.49-2.57,4.2-2.9,4.37-.11.2-.28.71-.4,1.22l1.57,5,4.19,1.84,1.49-.81v-9.88l3.58-1.49,4.08,3.74h2.15c.59-1.89.73-4.3.66-5.19Z"/>
        </g>
        <g>
          <path class="cls-1" d="m51.36,244.5l-1.42-5.09s.14-1.28.28-2.13.28-1.99.28-1.99l-.57-1.56-.71-3.11-3.69,1.98v5.53l.85,6.37.57,3.42,1.56,1.84,4.4,1.28c.57-1.56-.85-4.92-.85-4.92l-.71-1.61Z"/>
          <polygon class="cls-1" points="54.19 255.01 54.19 257.98 55.33 258.8 57.17 257.84 57.45 256.42 57.45 255.01 55.82 254.3 54.19 255.01"/>
          <polygon class="cls-1" points="45.54 260.37 45.54 262.8 48.66 262.24 49.3 259.83 49.3 258.8 46.82 258.8 45.54 260.37"/>
          <polygon class="cls-1" points="20.59 269.33 19.03 273.44 22.43 273.44 23.99 271.38 23.57 268.62 20.59 269.33"/>
          <path class="cls-1" d="m165.74,294.57l-.42-3.07-3.8-7.22v-6.66l-1.32-3.56h-1.08l-2.15-1.39-4.37-1.18,1.04-12.97,2.58-2.6h1.33l-.75-2.81v-1l-3.09-2.27-1.82-3.07v-1.01l-1.08.84-1.78,1.8-2.82.47-2.02-2.49-.53-2.57-2.66-.81-.82-4.77-.94-3.19-3.31-1.32-.8-2.78-2.1-2.11-.66-3.5,1.88-2.3,1.02-1.71.61-3.65,1.51-3.03,1.14-2.04h7.22l-.29-2.24-.51-2.92-4.41-2.85-4.66-4.66-.64-2.65-.07.04-10.33-6.4-4.61-1.36-1.71.23-1.66,2.61-2.12.73-2.32,1.45-3.61-1.24-.63,1.47-4.41,1.6-4.26,1.79c-1.37.25-2.77.68-3,.92-.15.26-.34,1.4-.44,2.4l1.54,1.46-.86,4.41-1.93,1.66-1.38,3.7-2.6-2.17v-4.35c0-.91-1.21-5.56-2.02-8.47l-.1-.36,2.16-2.07-.66-1.2-1.42-1.3v-2.42l-2.73-.95h-1.38l-1.23.98-2.19-2.4-.64-.26-3,.63-.75,3.94-2.82.93-2.49-2.87-.19-3.05-4.13-5.39-2.37-.95c-.11.1-.22.25-.22.43,0,.56.26,1.87.36,2.32l1.28,2.91.77,1.91c.47,1.64,1.02,3.45,1.13,3.71.19.43.07,1.3-.36,2.58l-.33.99-3.91-4.24c-.45.44-.94.96-1.12,1.25-.19.31-.39,1.6-.48,2.62v3.5s-1.7,2.09-1.7,2.09l-.49-.47c-.51-.49-1.15-1.06-1.4-1.23-.07-.01-.14-.04-.21-.08-.22-.12-.45-.25-.84-2.43l-.02-.1.39-2.75s.02-.61.63-1.77c.3-.58.49-1.12.59-1.47l-.77-.51-2.11-1.89-.44-2.01.17-2.32-1.81-1.06c-1.2-.08-2.44-.03-2.69.1-.33.22-1.25,1.19-1.83,1.83l-.51,3.37,1.09,1.72c.89.37,2.75,1.13,3.16,1.25.88.26,1.13,1.6,1.19,2l.02.12-1.45,5.94-.42.06c-1.54.2-3.4.55-3.71.73-.13.09-.25.14-.36.16-.01.02-.03.04-.04.06-.68.95-.83,3.2-.83,3.99v.16l-1.91,3.44-2.11-1.34-.45-2.47,1.02-4.41c.27-.56.7-1.63.7-2.13,0-.27-.05-.55-.12-.91-.11-.57-.26-1.36-.26-2.56,0-1.51-.12-3.65-.17-4.41l-1.09-.84-.56.47-.54,4.48-.22,4.41-.61-.02c-1.66-.06-3.34,0-3.36,0h-.38s-1.23-2.15-1.23-2.15l-1.31.59-.63,2.15,1.33,5.77-1.16,3.12h-4.38l-2.86,2.24s0,0,0,0c0,0-.52.6-.52,1.78,0,.91.31,2.07.52,2.77.39-.28.66-.73.75-.94l.64-1.71,2.11-1.05c.79-.24,2.47-.64,3.25-.2.24.14.4.35.47.6.04.16.14.32.24.51.27.46.65,1.08.31,2.11-.1.3-.16.51-.2.66-.14.5-.2.62-.65,1.22-.44.59-1.08.82-1.65,1.02-.35.13-.68.24-.93.43-.39.29-.66.73-.81,1l1.05,1.95,3.15.87s.55.04,1.22-.9c.88-1.24,1.43-2.68,1.44-2.69l.3-.8,2.81,2.25-.18,2.36,2.35,1.07.47,2.12-.59,3.34-.43,1.16,1.86,1.25c.18.16.32.24.39.23,0,0,.04-.02.09-.09.46-.62,1.17-1.6,1.41-1.95l.34-2.69-.83-1.82-1.62-1.62c-.22-.22-1.32-1.36-1.32-2.33,0-.79.52-3.58.58-3.9l.03-.17,1.97-2.19,1.93-.24,2.78,1.39v5.3c-.06.49-.19,1.65-.19,2.08.06.08.53.42,1.01.69.65-.08,1.62-.22,1.95-.33l.43-.14.93-.93.71-2.13c.07-.49.58-3.44.98-4.24.4-.8,1.48-2.06,1.6-2.21l.28-.33,3.26,1.26v4.29c1.13.91,1.7,1.65,1.7,2.19v3.03l.19,2.99.63,2.48-2.23,2.46-1.46.41s-.49.08-.74,1.07c-.23.93-.23,2.13-.21,2.82h.91l1.43,2.56-.06.23c-.17.71-.36.95-.77,1.42-.13.15-.28.33-.48.57-.52.65-.74,1.55-.8,1.86l.49,2.03,1.56,1.33h1.7c.55-.28,2.65-1.33,3.34-1.58.91-.32,2.11-.05,2.24-.02l.48.11v2.37l-2.97,2.76-.16.04c-1.01.23-2.05.61-2.24.81-.06.23-.3.57-.54.93-.17.25-.5.71-.51.87v3.53h3.03c.55-.22,1.25-.39,1.7-.09.24.16.37.42.37.71,0,.15.03.32.07.51.1.59.23,1.31-.17,1.91-.09.13-.15.27-.21.41-.21.47-.53,1.17-1.52,1.37-.6.12-1.4.46-1.82.65l-.44,2.71,3.52,1.48-.04,4.22-.97,2.63-.56-.17s-.09.14-.15.52c-.09.61.81,1.65,1.48,2.18l.2.16.24,2.41-1.25,1.49-3.16.82-1.5,2.43-.11,1.07,2.94.04,4.11,1.59,2.65,1.89c.09.06,2.88,1.88,3.09,4.42.16,1.97.63,4.7.73,5.31l1.09,1.71,2.52.17,4.45-.52,1.63-3.67,2.02-1.27,2.78-.78,3.12.21,1.61-.83,1.12-1.44.22-2.64,1.63-4.16,1.69-1.9,4.42-.2,3.05.22,3.59,1.13,2.5,1.04,2.75,4.32,1.18,1.68,3.67,1,3.5-2.39,3.29-.21,3.41.85.9-1.66,1.69-2.33,3.36-.84,5.84.84.09.43c.07.33,1.72,8.22,1.72,10.53,0,.9.23,1.1.27,1.14.08.06.21.02.21.02l.22-.04,1.34.04,4.44,1.58.64,1.86.9,1.28,3.69-1.45c.12-.5.28-1.32.28-1.76,0-.78.19-2.46.19-2.53l.03-.3,1.39-.84,4.69.63,4.11,1.46,2.11-.97-2.45-.8Z"/>
        </g>
        <path class="cls-1" d="m339.24,317.38l.38-9.09,3.33-6.14.9-4.42-.9-5.06-1.1-1.73-1.18-.13-1.75,1.19-1.19,2.54-4.57,4.51-3.35.81-2.39-3.92-.31-4.25,2.69-3.68.86-1.49-.76-2.14-2.09-1.05-1.43-4.59-.86-18.49,2.75-5.95-.1-10.46,2.52-3.63-.59-3.13-1.92-3.27-.49-3.94,2.04-5.16,2.69-4.37-1.02-14.92-4.45-11.04-.96-9.43,1.53-3.44.17-5.15-3.65-3.05-4.08,3.15-1.12,3.09-3.69,3.48h-3.46l-3.18-2.19-4.66-2.69-2.75.65-1.56,2.15-4.35-.05-4.29-1.86-3.33-.67c-.45.6-1.46,1.86-2.42,2.48-1.24.8-3.46,1.38-3.55,1.4l-.32.08-1.69-1.48c-.45-.21-2.24-1.1-2.84-2.1-.23-.39-.98-.22-1.24-.14l-1.09.94-.96,3.08-.2.12s-.93.56-1.49.93c-.1.06-.2.1-.31.13-.04,0-.08,0-.11.01-.06,0-.11.02-.17.02-.01,0-.03,0-.05,0-.17,0-.36-.04-.54-.1-.04-.01-.08-.03-.12-.04-.17-.06-.34-.13-.51-.22-.03-.01-.05-.03-.08-.04-.19-.1-.37-.21-.54-.33-.04-.03-.07-.05-.11-.08-.16-.11-.32-.22-.45-.33,0,0-2.17-1.44-3.97-2.52l-.25.79-7.08,2.83-4.91,3.01-2.85,3.74-5.11,2.5-2.9,3.74v4.84l1.5,3.22-1.71,2.72-9.11,3.33h-1.56l-3.66-5.3-1.26-3.21h-3.82l-.18-.3c-.21-.35-.56-.73-.73-.79,0,.04-.1.19-.2.61-.53,2.29,0,4.5,0,4.52l.15.62-3.02.64h-6.75v2.13l-4.02,1.09h-1.65v3.6l1.99,2.27v2.91l-2.61,1.06h-4.15l-2.3-1.44-1.8-.22-1.4,1.6c-1.08.54-2.68,1.31-3.7,1.8l1.45.97.97,7.79h-3.87l-2.5-1.67-1.14.21-2.58,2.37,4.27,1.95,3.8,5.78-1.26,4.42v1.63c.24.38.73,1.27.57,2.15-.09.51-.39.93-.86,1.22-.73.46-1.41,1.63-1.8,2.45.71.22,1.68.64,2.06,1.4.16.31.28.81-.03,1.43-.63,1.27-1.71,2.02-2.27,2.35l-.03,2.07-1.47,4.46,1.23,1.99h2.25l.18.18c1.03,1.05,2.35,2.26,2.68,2.41,2.1.75,3.17,1.44,3.68,2l2.61-2.22,3.52,2.72c.48.3,1.35,1.38.78,3.1-.56,1.68-2.74,2.49-3.56,2.74l-1.21,2.45.28,2.56-2.62,5.92-.82,2.76-.91,4.53-4.08,1.17-.18,1.47-2.38,3.7,2.51,3.78-.19.33c-.19.33-1.85,3.26-2.24,3.79-.02.03-.07.09-.12.16-.09.13-.22.29-.39.52l2.53.67.12.12c3.08,3.16,3.08,3.58,3.08,3.84v2.23l4.52,1.38,4.99,1.15h6.14l3.3,3.37,1.16,2.96c.66.53,2.24,1.85,2.54,2.74.28.83.98,2.6,1.38,3.36.47.87.76,2.47.77,2.54l.05.27-2.58,3.49,1.5,1.78h12.93l1.57,4.95,1.44.73,2.9-.86,2.22-1.35,7.19-1.44,1.54-5.63h3.36v7.39l3.95,3.32,7.92.03,6.33,2.18h5.42l2.34-1.17,1.72-3.2,2.37-2.36,2.58-.86,3.73,1.03,2.2,2h3.47l1.75-1.65,2.08-.76,2.1-.97.55-3.87,1.12-.97,2.34-1.5,1.37-1.18,3.64-.86,4.44.04,4.79,1.85,1.8,4.41.71,1.96,1.25,1.11,2.64-1.48,2.77-2.19,3.26.46,2.08.89.03.02h.02s2.7,1.45,2.7,1.45l1.14-11.09.1-.13c1.55-2.15,3.25-4.65,3.41-5.13.16-.48.35-4.03.44-7.2Z"/>
        <path class="cls-1" d="m243.79,192.07l5.1-2.5,2.92-3.75,5.1-3.12,6.63-2.66.16-.49c-.39-.21-.63-.33-.79-.4-.09-.04-.18-.08-.24-.09,0,0,0,0,0,0h0c-.51,0-4.22-.48-6.77-.82-1.16-.15-2.07-.28-2.34-.32l-.25-.09-1.89-1.23c-.14-.08-3.97-2.37-4.54-2.75-.17-.11-.55-.06-.83.02l-1.41,1.41h-3.07l-3-1.71-.61-1.84-1.09-1.55h-2.76c-.72.32-2.18.95-2.78.95-.54,0-1.57-.69-3.06-2.05l-.47-.43,1.29-1.34,1.89-1.28,2.38-1.28v-2.35c-1.4.57-3.93,1.47-5.2,1.15-.37-.09-.65-.12-.87-.15-1.05-.12-1.36-.45-1.67-1.81-.19-.83-2.25-1.54-3.68-1.79-.4.15-1.48.57-2.06.86-.79.39-4.83,1.23-5.64,1.4h-.12s-3.88.01-3.88.01l-1.28,1.4-1.89,1.13-3.4,1.44v-2.99l-1.42-3.74-1.43-1.43h-1.9l-4.41,5.64v4.63l-1.77,1.07h-6.03l-6.09-.8h-2.04l-1.72-2.45-.3.77-.78,2.57-2.83,1.97-2.21-2.04-.78-.54-.62,1.14-.87,4.62-4.23,4.35-5.04,2.96-1.55-.42c-1.53-.93-3.3-1.96-3.6-2.06-.21.05-1.52.72-2.63,1.37l-.78,2.74-.85,2.04-4.57,1.36-.1.89v1.21c0,1.14-.09,1.75-.63,1.91l-.42.13-2.98,1.46-3.77,1.46v2.04l-1,.64.66,2.73,4.37,4.37,4.71,3.03.61,3.49.47,3.66h-7.9l-.77,1.38-1.46,2.92-.63,3.72-1.13,1.89-1.57,1.93.48,2.55,2.06,2.06.72,2.5,3.31,1.32,1.13,3.83.71,4.09,2.63.8.61,2.99,1.38,1.69,1.72-.29,1.56-1.57,3.14-2.44v3.2l1.58,2.66,3.34,2.38v1.56l1.14,4.14h-2.45l-1.89,1.91-.92,11.49,3.65,1.01,1.93,1.24h1.57l1.7,4.68v6.46l3.78,7.25.33,2.41,3.11,1.02,3.39-.19,6.82,1.93h5.61l.73,1.66,1.17,1.75,1.94-3.01.25-2,4.14-1.18.78-3.84.86-2.89,2.51-5.69-.28-2.59,1.62-3.28.28-.07c.7-.18,2.59-.88,2.97-2.01.05-.15.08-.29.1-.41.01-.07,0-.12.01-.18,0-.06.01-.12,0-.17,0-.07-.01-.13-.02-.2,0-.03,0-.06-.01-.09-.02-.07-.04-.13-.06-.19,0-.01,0-.02-.01-.03-.12-.27-.29-.4-.33-.42l-2.76-2.13-4.01,3.41.53-1.84c-.11-.18-.66-.86-3.26-1.79-.61-.22-2.15-1.71-2.96-2.52h-2.43l-1.89-3.07,1.62-4.91v-2.55l.37-.17s1.37-.63,2.04-1.96c.1-.19.05-.27.03-.32-.21-.42-1.28-.8-1.93-.92l-.74-.14.27-.7c.11-.28,1.11-2.77,2.59-3.7.22-.14.28-.29.3-.4.02-.11.01-.24-.01-.37-.01-.07-.04-.14-.06-.21-.02-.06-.03-.13-.06-.19-.02-.05-.05-.09-.07-.14-.04-.07-.07-.15-.11-.22-.05-.08-.09-.15-.13-.21,0,0-.01-.02-.02-.02l-.12-.16v-.11s0-2.09,0-2.09l1.15-4.04-3.29-5-5.65-2.58,4.22-3.87,1.98-.36,2.61,1.74h2.09l-.73-5.83-2.8-1.87.99-.47s2.84-1.35,4.55-2.21l1.55-1.86,2.86.41,2.12,1.32h3.66l1.49-.64v-1.63l-1.99-2.27v-5.3h2.81l2.87-.79v-2.43h7.93l1.61-.35c-.14-.9-.3-2.63.12-4.46.22-.94.63-1.47,1.22-1.57.77-.12,1.44.6,1.78,1.08h3.99l1.55,3.93,3.18,4.58h.8l8.39-3.11,1.13-1.79-1.33-2.99v-5.4l3.34-4.31Z"/>
        <path class="cls-1" d="m186.74,309.16h0s.05-.06.07-.09c.27-.36.49-.65.63-.83.05-.06.09-.12.11-.15.18-.24.79-1.28,1.39-2.32.2-.35.4-.69.58-1.01l-4.07-6.11-.45-1.02-5.06-.02-6.71-1.9-3.18.18-3.9,1.79-4.52-1.61-4.07-.53-.5.3c-.05.52-.15,1.56-.15,2.08,0,.81-.36,2.22-.4,2.38l-.08.31-5.19,2.04-1.59-2.3-.47-1.37-3.78-1.34h-.94c-.24.07-.74.14-1.21-.19-.55-.37-.82-1.1-.82-2.17,0-1.89-1.25-8.15-1.6-9.85l-4.74-.68-2.69.67-1.38,1.9-1.32,2.43-4.15-1.04-2.76.17-3.69,2.52-4.65-1.27-1.45-2.07-2.56-4.02-2.09-.87-3.47-1.09-2.76-.18-3.83.18-1.26,1.42-1.44,3.78-.2,2.74-1.64,2.02-1.98,1.02c-.19,1.77-1.09,4.07-1.13,4.17l-.16.39h-4.16l-.02-.11c-.8,1.13-2.32,2.95-2.38,3.03l-.27.32-.4-.13c-.81-.26-1.65-.31-1.81-.17-.58.63-4.03,1.28-6.86,1.73l-2.3,1.32-.43,2.17,3.07,2.16,1.98,1.84,4.02.17,4.82-1.3,1.78-.82c.08-.01.74-.08,1.19.39.21.22.43.64.29,1.34-.05.24-.02.27.06.38.38.53.34,1.01-.14,1.78-.87,1.38-4.1,2.85-4.47,3.01l-.25.05h-2.9l-.53.75.89,1.63,1.99,1.63,1.64,1.51.9,2.41-1.61,3.23h-5.77l-1.61,1.84-1.3.99h-3.66l-3.03,1.42-8.64,6.7-2.91,3.28.78,3.15,3.34.82h10.69l3.88,7.2h-6.28l-2.99,2.72-5.48.78-3.13.87-3.98,4.89-.27.61.84.72h1.31l.7,4.1v2.32h2.22l.95,2.47.18,2.9.83,1.05h1.88l1.34-1.39c.15-.06,1.48-.61,2.49.05.55.36,1.66.99,2.16,1.27l3.14-1.26,1.97-2.74,1.81-1.09,1.97-2.14,1.4-2.63v-5.77l3.64-1.21h1.59l1.93-2.41,4.55.65,7.86,9.17.39-.08,1.46-1.62.76-3.25,1.85-1.62,3.75.22,1.58,2.04.82,4.12-.78,1.76v1.48l1.89,1.7-.02,2.12c-.27,1.15-.56,2.41-.68,3,.57.34,1.98,1.08,3.32,1.75l3.14-1.3,3.92-1.24,1.76,1.17,3.94-.57,3.45,2h3.8s.04,0,.11,0c.02,0,.03,0,.05,0,.07,0,.15,0,.25-.01.02,0,.04,0,.06,0,.27-.01.63-.02,1.06-.02.01,0,.02,0,.03,0,.02,0,.04,0,.05,0,.18,0,.38,0,.57,0,.05,0,.11,0,.16,0,.24,0,.47.02.72.04,1.12.08,2.55.8,3.38,1.27.18-.41.49-.89.98-1.18.36-.3,1.23-2.55,1.81-4.46l.13-.23,1.78-2,.38.12c.13.04,3.12.98,4.32,1.78.88.58,4.15,1.79,5.34,2.2l.18.1,3.2,2.53s.4.18.92.33h0c.33.1.7.17,1.06.16.01,0,.03,0,.04,0,.15,0,.3-.04.43-.08.03,0,.06-.01.08-.02.15-.06.29-.15.39-.28l1.04-1.29c.17-.8.94-4.48,1.11-5.17l1.06-2.88,2.54-3.22-1.33-1.9c-.06-.22-.59-2.19-.59-3s.35-2.57.39-2.77l.31-1.1-1.5-2.34-2.76-2.48-.42-4.06,1.39-2.45.52-1.72v-4.44l.81-4.09,1.33-1.33,1.36-5.99,2.41-3.83,3.71-2.9,1.61-2.37,3.78-2.15,4.69-2.04,2.62-3.45h0l.11-.15.7-.92Z"/>
        <path class="cls-1" d="m157.5,36.97l-4.71.59-4.58-2h-20.33l-5.82,2.18-.66,5.23h4.59l1.7,2.66.7,4.82c.26.78.69,2.18.83,2.88.28.07.84.12,1.4.13l3.97-2.13h3.98l-.36,2.88.53,3.17,1.2,1.68,2.02.45,1.81-1.53,8.63.78-.15,8.86.72,2.89,6.74.59,1.96,2.03,1.41,2.51,3.56.59.34,2.58c-.13,3.57-.31,7.8-.45,8.22-.06.18-.2.59-4.82,4.43l-2.05,2.62.68,3.1-.77,2.15c-.25.84-.62,2.19-.67,2.71.18.17.73.44,1.39.69.36.13.74.27,1.13.38l.21.06,1.56,2.25-.91,4.14-.35,2.3.83.42,4.13-.71,4.46,2.61,2.01,3.62,7.56-.69,6.68,3.04,1,5.37-2.97,1.29-3.37,1.91-.11,1.72,2.12,2.63v.23c-.06,1.8-.17,4.9-.32,5.34-.11.34-1.06,3.58-1.41,4.8l-4.67,19.96-.46,1.19,1.83,2.59h1.48s.04,0,.04,0l6.05.8h5.61s.88-.53.88-.53v-4.36l5.04-6.46h3.02l2.02,2.1,1.55,4.19v1.24l1.6-.67,1.73-1.04,1.45-1.63h4.38c1.8-.37,4.78-1.04,5.27-1.28.78-.39,2.27-.95,2.33-.97l.15-.06.16.02c.73.11,4.41.78,4.86,2.77.14.63.23.77.26.8.03.01.2.03.34.04.26.03.6.07,1.03.18.94.23,3.73-.77,5.27-1.45l.87-.39h0v4.99l-2.97,1.6-1.78,1.21-.27.28c.75.64,1.55,1.25,1.81,1.32.22-.02,1.41-.47,2.33-.9l.26-.06h3.54l1.59,2.31.49,1.48,2.3,1.31h2.23l1.35-1.28c.12-.05,1.27-.49,2.09.06.44.29,3.14,1.91,4.51,2.73l1.8,1.16c2.41.33,5.9.79,7.7,1,.6.07,1.02.11,1.15.11.19,0,.48.05,1.37.53h0s.66.37.66.37l.43.25h0c1.2.71,2.64,1.63,3.96,2.5.2.13.34.22.34.23.65.51,1.4.96,1.67.91.35-.25.94-.61,1.25-.8l.93-2.97,1.64-1.36c.74-.28,2.17-.46,2.83.64.34.57,1.64,1.31,2.37,1.65l.15.1,1.26,1.1c.63-.18,2.05-.63,2.87-1.16,1.05-.68,2.31-2.46,2.32-2.48l.23-.33,4.31.87,4.23,1.84h3.34l1.46-2.01,3.68-.86,5.13,2.96,2.91,2h2.59l3.12-2.94,1.15-3.15,4.46-3.44-4.39-8.25.95-8.15-1.17-2.52-3.84-2.49-1.35-5.53-6.49-9.56-1.98-5-4.82-5.36.19-7.37c-4.08-3.84-6.23-6.03-6.39-6.49-.18-.54-1.86-6.93-2.23-8.35l-6.36-5.07-8.32-10.02-3.65-6.13-2.3-4.97-15.16-22.8-2.06-8.25-17.93-34.53-2.67-6.67-1.37-4.23-3.74,2.28-1.64,7.62-1.15,9.19-4.81,6.24-7,4.25-9.32,6.05-12.11-.58-4.43.56-4.68.31-1.46-2.62-10.34-1.24-11.15,2.94-2.71,1.45Z"/>
        <path class="cls-1" d="m68,102.84v4.13l.93,2.42,2.14,3.34,4.16,1.89.1.16c.16.26,1.59,2.61,1.79,4.02.19,1.32.94,6.26.94,6.26l.96,6.68-.52,3.49,3.17,2.22c.66-.27,2.06-.68,3.02.27.31.31.71.51,1.06.68.47.23.92.45,1.04.94.08.29.01.58-.19.87-.26.38-.04,1.1.06,1.32l.21.48-3.81,2.46-.24-.04s-.04,0-.06,0c.02.07.06.18.14.32.54,1.02,2.66,2.13,3.44,2.48l1.18.75,2.02.54,5.91,1.02v1.91l-2.01,2.01-2.02.45-.14-.04c-.07,0-.26.13-.39.54l-.44,1.32-2.59,1.94h-1.38l-1.31-1.09-.93-1.1-1.11-.48-3.49-.5c-.4.66-.63,1.1-.75,1.35l.57.85,1.65,3.08-.8,4.19-.46,3.19h1.92l1.15-2.36,1.17-1.76,7.21.06,3.02,1.41c.26.16,1.28.82,1.39,1.77.04.31-.01.78-.46,1.22-.29.29-.4.41-.44.47-.08.16-.13.2-.58.53-.71.53-4.7,3.25-5.4,3.73l-.99,1.48-.46,3.51,1.41.04,2.16.83c.49-.32,1.44-.87,2.16-.87.23-.04.86-.67,1.37-1.37v-2.1l1.43-.32h.1c.84.11,2.25.41,2.25,1.38v2.06l1.32,1.7v3.08l-1.99,2.43-3.44.61h-1.6s-.14,2.45-.14,2.45l3.46,2.08,4.18,2.01c.32,0,1.18.01,1.92,0,.56-.01,1.3-.4,1.65-.61l.58-.87v-2.07l1.22-1.98h4.81l1.32,1.69-3.16,2.53-.25.88.7,1.22,3.38,1.16,2-1.23,1.78-.61,1.74-2.73,2.54-.34,5.1,1.52,9.74,6.03.13-.08.74-.47h0s.07-.04.07-.04v-2.21l4.51-1.74,3.26-1.61c.02-.15.03-.39.03-.77v-1.28l.19-1.78,4.79-1.43.6-1.43.89-3.15.21-.13c3.09-1.84,3.61-1.68,3.83-1.62.5.14,2.77,1.51,3.82,2.14l.8.2,4.53-2.66,3.78-3.92.88-4.54,1.32-2.45,1.99,1.38,1.54,1.42,1.66-1.15.67-2.2.62-1.58h0s.68-1.73.68-1.73l4.65-19.91c.06-.21,1.29-4.44,1.43-4.88.07-.3.18-2.62.24-4.76l-2.13-2.64.18-2.87,3.98-2.26h.03s.03-.03.03-.03l2.1-.91-.7-3.76-5.8-2.64-8.04.73-2.24-4.03-3.77-2.21-4.09.7-2-1,.49-3.23.8-3.65-1-1.44c-3.21-.95-3.21-1.81-3.21-2.09,0-.76.61-2.8.74-3.21l.66-1.84-.73-3.33,2.54-3.23c1.95-1.61,4.1-3.48,4.49-3.95.08-.62.22-3.58.33-6.09.02-.58.05-1.14.06-1.64l-.22-1.57-3.25-.54-1.67-2.95-1.48-1.52-7.16-.63-.98-3.91.13-7.87-6.97-.63-1.88,1.59-3.09-.69-1.64-2.3-.6-3.63.21-1.66h-2.26l-1.99,1.06-1.98,1.06h-.16c-2.42,0-2.75-.53-2.75-1.05,0-.06-.04-.2-.08-.4-.15-.58-.46-1.63-.75-2.53l-.7-4.78-1.16-1.73h-5.34l.75-5.98-4.11,1.53-6.6,6.29-1.94,5.81-2.1,4.21-5.95,3.68-2.44,5.14-.89,5.32-7.04,3.76-7.65,4.69v7.46l-1.28,2.4,1.15,4.07-.02.13c-.03.19-.71,4.7-.86,5.42-.09.47-.21,2.92-.27,4.45l1.02,2.55,3.69,2.73c.6.6,1.24,1.35,1.24,1.92,0,.48,0,1.75-1.05,1.75h-2.01l-2.7-1.62-1.7-1.87-1.11-1.45-.89-2.41-.27-2.27-1.51-2.3-2.07-.73-2.49-.36-1.62,1-1.3,3.29Z"/>
        <path class="cls-1" d="m62.89,131.74s.57,3.21,3.78.38c3.21-2.84,4.92-5.48,4.92-5.48v-1.48l-2.65-1.73h-4.92l-3.02,4.16,1.89,4.16Z"/>
        <g>
          <path class="cls-1" d="m194.47,434.14l-3.4-4.69.28-1.64,1.98-1.99v-1.32l-1.7-1.32-3.12-1.23s-1.7,1.04-2.08,1.8c-.38.76-1.13,2.17-1.13,2.17,0,0-3.69.57-3.88,1.32s2.36,7.66,2.36,7.66l1.7,10.11,1.04,2.93,2.08.09,1.63-2.51,1.39-3.83,3.02.99,1.32,3.64,2.93,1.7,3.12-.71,1.42-4.63,1.13-3.92.66-2.74-.95-1.51-9.83-.38Z"/>
          <polygon class="cls-1" points="201.09 424.78 200.05 423.55 197.12 424.02 196.93 430.07 198.07 431.02 203.74 431.59 205.25 429.45 205.25 426.48 201.75 425.54 201.09 424.78"/>
          <path class="cls-1" d="m222.27,429.74h-4.16l-1.7,2.79,2.84,3.97,3.02.19s1.51-1.13.95-3.31c-.57-2.17-.95-3.64-.95-3.64Z"/>
          <polygon class="cls-1" points="233.23 432.53 233.23 434.99 234.74 440.17 237.2 440.17 240.04 438.58 240.42 436.69 237.39 432.53 233.23 432.53"/>
          <path class="cls-1" d="m266.13,424.97c0-.57.38-1.42.38-1.42l-.76-1.61-.38-3.78v-3.78c0-.57-.19-3.59-.19-3.59l-1.13-1.32h-.95l-1.13,2.65s-.98,1.51-.87,2.27c.11.76,0,3.4,0,3.4l-2.91.76-1.32.76v2.65l1.32,3.21-.38.95-3.21-1.13-3.59-1.13-3.4,1.13-2.65,2.27.38,5.98,3.03.17,3.02-.85,2.65,2.46-.57,1.36s-2.46.18-2.08,1.3c.38,1.12,1.13,3.95,1.13,3.95l.95,1.09.19,2.83,2.65,1.8,3.65-1.8,1.16-.52v-6.05l2.95-1.31s1.32-.58,1.32-.96,1.13-3.47,1.13-3.47l1.51-1.63.76-2.14-2.08-3.34s-.57-.57-.57-1.13Z"/>
          <polygon class="cls-1" points="275.58 406.16 273.12 409.47 273.69 411.73 276.9 412.68 278.23 411.17 278.79 409.47 275.96 407.11 275.58 406.16"/>
          <path class="cls-1" d="m330.89,340.59l-1.98-.85-2.49-.33-2.44,1.92-3.49,1.97-2.15-1.91-.81-2.23-1.59-3.89-4.18-1.62h-4.03l-3.13.76-1.21,1.04-2.34,1.5-.7.61-.58,4.08-2.76,1.28-2,.73-1.79,1.77h-4.46l-2.34-2.13-3.08-.86-1.95.65-2.1,2.09-1.75,3.32-2.96,1.48-6.02-.03-6.33-2.18h-8.06l-4.74-3.98v-6.73h-1.17l-1.49,5.46-7.83,1.57-2.14,1.32-3.45,1.03-2.34-1.19-1.45-4.58h-12.6l-2.48-2.94,1.12-1.63,1.69-2.24c-.11-.52-.34-1.43-.59-1.92-.44-.84-1.17-2.69-1.46-3.55-.13-.4-1.27-1.49-2.26-2.26l-.13-.11-1.24-3.16-2.7-2.7-5.84-.02-5.1-1.18-5.44-1.66v-3.05c-.24-.41-1.49-1.79-2.61-2.95l-2.7-.72c-1.29,1.7-3.03,3.98-3.03,3.98l-.1.13-4.93,2.15-3.47,1.98-1.64,2.35-3.69,2.9-2.15,3.49-1.34,6.05-1.32,1.32-.72,3.6v4.51s-.63,2.09-.63,2.09l-1.23,2.17.33,3.18,2.58,2.34,1.85,2.88-.46,1.59c-.09.46-.35,1.91-.35,2.48,0,.47.31,1.78.52,2.57l1.72,2.36-3.06,3.88-.91,2.55c-.17.68-1.1,5.17-1.11,5.21l-.03.15-1.23,1.52c-.1.13-.21.23-.33.33-.03.03-.07.05-.1.07-.11.08-.23.15-.35.21-.04.02-.08.04-.13.06-.18.07-.36.11-.54.14-.05,0-.1.02-.16.02-.27.03-.54.02-.8,0h0l.15,1.1,3.01,2.87v4.64l1.21,3.81,1.89,2.07,4.12,3.18.15,3.68,3.29,4.49,2.1,2.41,2,3.17v6.77l4.01.93,2.61.93c.93,0,2.06-.06,2.34-.16.32-.13,1.94-1.35,3.36-2.48v-3.5l5.84,2.21h2.86v-4.68l1.73-3.2,3.33,2.3-.78,7.06,2.65,5.6c1.93.72,4.14,1.73,4.47,2.72.4.26,2.2.42,4.04.37l1.71-2.06c.5-.56,1.71-1.86,2.36-2.08.61-.2,3.05-.22,3.79-.22h.47l.86,2.99c.39.53,1,1.09,1.32,1.09.03,0,.1.02.24-.2.94-1.51,2.46-3.97,2.46-3.97l.17-.27,3.21-.25.18.41c.16.38.66,1.69.13,2.48-.32.48-1.43,2.01-1.79,2.51,0,.39.09,1.11.46,1.51.2.21.46.31.82.31,2.09,0,3.78.19,3.85.19l.2.06,3,1.43v1.77l-.14,1.25.67.19c.3-.07.83-.23,1.15-.44.26-.2.94-1.46,1.44-2.55l.14-1.25-2-2.08c-.03-.08-.8-2.02-.8-4.01,0-1.86-.19-6.32-.19-6.36l-.02-.44,3.58-1.37.79-.11v-4.14h-1.16l-2.24.86-3.63,3.42-.42-.55c-.06-.09-.63-.86-.85-1.5-.03-.09-.08-.19-.14-.3-.29-.57-.76-1.51,0-2.85.83-1.45,3.9-2.93,4.25-3.09l2.38-.92,2.1-2.1,4.89-1.43,4.19,1.73,2.41,2.49c.43,1.14,1.13,2.13,1.39,2.13h0c.56-.28.98-.49,1.26-.63-.27-1.04-.84-3.31-.84-4.12,0-.5-.95-3.01-1.84-5.05l-.98-3.73c-.43-3.76,0-4.09.22-4.27.63-.49,1.56-.16,1.74-.09l.19.11,2.86,2.54v3.15l2.74,2.93,4.45-.21v2.35c.03.24.18.65.33.74.02.01.05.04.17,0,1.14-.38,5.3-1.7,5.3-1.7l.32-.1,3.57,2.99,3.16-.17,2.02-1.5,1.99-1.23,7.16-2.11.53,6.62.08,2.56h1.13l1.62-1.54,4.36-5.04,5.22-.87,3.61-1.99,3.81-3.77,2.51-2.18,1.68-2.73.36-3.08,1.31-5.94.28-.13c2.17-.98,5.78-2.65,6.23-2.96.47-.33,1.97-1.81,2.69-2.53l.17-2.86.95-12.39v-3.57s3.5.82,3.5.82l2.08-.16,2.07-2.73v-10.55l-3.15-1.69Z"/>
        </g>
      </g>
    </g>
  </g>
</svg>